<?xml version="1.0" standalone="no"?>
<!DOCTYPE svg PUBLIC "-//W3C//DTD SVG 20010904//EN"
 "http://www.w3.org/TR/2001/REC-SVG-20010904/DTD/svg10.dtd">
<svg version="1.0" xmlns="http://www.w3.org/2000/svg"
 width="907.000000pt" height="241.000000pt" viewBox="0 0 907.000000 241.000000"
 preserveAspectRatio="xMidYMid meet">

<g transform="translate(0.000000,241.000000) scale(0.100000,-0.100000)"
fill="#000000" stroke="none">
<path d="M682 2395 c-50 -15 -77 -37 -101 -80 -14 -26 -17 -93 -21 -570 l-5
-540 -24 -48 c-46 -94 -103 -117 -288 -117 -197 0 -227 -21 -239 -162 -10
-111 13 -178 80 -244 90 -88 230 -122 450 -111 360 19 568 159 643 437 16 59
18 122 18 660 0 552 -1 598 -18 642 -32 83 -96 121 -230 138 -109 13 -212 12
-265 -5z"/>
<path d="M2170 2400 c-334 -47 -600 -247 -714 -537 -128 -326 -82 -747 108
-991 194 -250 477 -367 845 -349 164 8 294 41 431 108 90 45 117 64 196 143
181 181 256 381 256 686 0 293 -81 511 -256 686 -122 121 -270 199 -460 240
-85 19 -315 26 -406 14z m295 -504 c126 -58 195 -207 195 -421 0 -190 -34
-301 -119 -385 -65 -64 -105 -80 -208 -80 -196 0 -313 169 -313 455 0 168 34
286 106 365 57 63 121 90 214 90 58 0 87 -6 125 -24z"/>
<path d="M4235 2399 c-311 -41 -550 -198 -665 -435 -68 -138 -83 -212 -84
-419 -1 -194 11 -271 59 -396 86 -218 218 -328 462 -385 52 -12 570 -74 619
-74 19 0 18 -63 -2 -105 -8 -18 -33 -45 -55 -59 -42 -28 -134 -56 -185 -56
-45 0 -76 -13 -120 -52 -49 -44 -76 -105 -75 -176 0 -94 38 -162 116 -207 56
-34 119 -40 246 -26 380 44 609 207 674 482 12 54 15 178 15 795 0 524 -3 741
-11 765 -47 136 -267 275 -524 330 -105 23 -363 33 -470 18z m364 -513 c46
-44 53 -96 49 -376 -3 -276 -10 -306 -77 -344 -49 -28 -188 -34 -266 -12 -75
22 -142 88 -176 172 -21 53 -24 75 -24 204 0 138 1 148 28 205 64 137 154 186
334 182 97 -2 103 -3 132 -31z"/>
<path d="M6185 2399 c-239 -32 -460 -145 -581 -297 -58 -74 -119 -196 -146
-297 -18 -68 -22 -108 -22 -265 -1 -206 15 -296 73 -423 96 -213 234 -314 493
-361 71 -13 532 -66 574 -66 19 0 19 -62 0 -98 -31 -60 -109 -105 -201 -117
-105 -13 -117 -17 -156 -52 -47 -42 -64 -73 -79 -137 -28 -128 66 -262 199
-282 57 -9 230 10 341 36 263 63 448 233 495 457 12 56 15 201 15 798 l0 730
-23 50 c-59 126 -276 256 -512 307 -105 22 -363 32 -470 17z m355 -504 c53
-48 55 -60 55 -355 0 -260 -1 -277 -21 -315 -32 -60 -71 -79 -180 -83 -110 -5
-171 12 -232 64 -86 74 -133 238 -112 397 13 101 35 159 82 212 71 81 141 106
285 102 85 -2 105 -6 123 -22z"/>
<path d="M8190 2401 c-118 -39 -189 -142 -177 -257 12 -117 92 -196 210 -207
77 -7 166 -39 195 -70 43 -46 69 -147 38 -147 -62 0 -576 -64 -644 -80 -229
-55 -367 -176 -417 -367 -18 -67 -20 -220 -4 -295 52 -249 283 -409 648 -449
130 -14 391 -6 516 16 231 41 427 146 488 259 22 41 22 44 22 556 0 512 0 515
-23 590 -31 99 -73 171 -137 235 -130 130 -334 205 -590 219 -55 3 -111 2
-125 -3z m280 -1237 l0 -145 -34 -14 c-62 -26 -209 -39 -289 -26 -121 20 -167
64 -167 160 0 61 29 101 92 126 40 16 243 41 351 44 l47 1 0 -146z"/>
</g>
</svg>
