<svg xmlns="http://www.w3.org/2000/svg" width="73.985" height="73.982" viewBox="0 0 73.985 73.982">
  <g id="recruitment" transform="translate(0 -0.009)">
    <g id="Grupo_3473" data-name="Grupo 3473" transform="translate(0 15.365)">
      <g id="Grupo_3472" data-name="Grupo 3472">
        <path id="Caminho_3898" data-name="Caminho 3898" d="M66.605,129.715a6.045,6.045,0,0,0,1.036-3.391v-1.159a6.078,6.078,0,0,0-10.371-4.3,21.388,21.388,0,0,0-40.555,0,6.078,6.078,0,0,0-10.371,4.3v1.159a6.045,6.045,0,0,0,1.036,3.391A9.314,9.314,0,0,0,0,138.813v2.909a1.445,1.445,0,0,0,1.445,1.445H8.959a1.445,1.445,0,1,0,0-2.89H2.89v-1.464A6.415,6.415,0,0,1,9.3,132.405h6.839a21.266,21.266,0,0,0,2.838,6.767L2.488,155.66a5.415,5.415,0,0,0,7.658,7.658l9.09-9.09a1.445,1.445,0,0,0-2.044-2.044L8.1,161.274A2.525,2.525,0,1,1,4.532,157.7l16.185-16.185a21.376,21.376,0,0,0,37.131-9.113h6.839a6.415,6.415,0,0,1,6.408,6.408v1.464H57.511a1.445,1.445,0,1,0,0,2.89H72.54a1.445,1.445,0,0,0,1.445-1.445v-2.909A9.314,9.314,0,0,0,66.605,129.715Zm-50.991-3.391a3.191,3.191,0,0,1-6.381,0v-1.159a3.191,3.191,0,0,1,6.381,0Zm21.378,19.833a18.5,18.5,0,1,1,18.5-18.5A18.517,18.517,0,0,1,36.992,146.157Zm27.759-19.833a3.191,3.191,0,0,1-6.381,0v-1.159a3.191,3.191,0,0,1,6.381,0Z" transform="translate(0 -106.275)" fill="#878b8e"/>
      </g>
    </g>
    <g id="Grupo_3475" data-name="Grupo 3475" transform="translate(21.386 21.145)">
      <g id="Grupo_3474" data-name="Grupo 3474">
        <path id="Caminho_3899" data-name="Caminho 3899" d="M163.606,146.275a15.6,15.6,0,0,0-10.7,26.954,1.444,1.444,0,0,0,.168.156,15.577,15.577,0,0,0,21.069,0,1.43,1.43,0,0,0,.168-.156,15.6,15.6,0,0,0-10.7-26.954Zm0,28.322a12.654,12.654,0,0,1-7.875-2.739,8.918,8.918,0,0,1,15.75,0A12.654,12.654,0,0,1,163.606,174.6Zm-3.045-13.407v-1.123a3.045,3.045,0,1,1,6.09,0v1.123a3.045,3.045,0,1,1-6.09,0Zm13.034,8.551a11.7,11.7,0,0,0-5.529-4.641,5.909,5.909,0,0,0,1.476-3.91v-1.123a5.935,5.935,0,1,0-11.87,0v1.123a5.908,5.908,0,0,0,1.476,3.91,11.706,11.706,0,0,0-5.529,4.641,12.716,12.716,0,1,1,19.977,0Z" transform="translate(-148 -146.275)" fill="#878b8e"/>
      </g>
    </g>
    <g id="Grupo_3477" data-name="Grupo 3477" transform="translate(20.635 56.986)">
      <g id="Grupo_3476" data-name="Grupo 3476">
        <path id="Caminho_3900" data-name="Caminho 3900" d="M145.267,394.732a1.444,1.444,0,1,0,.423,1.022A1.456,1.456,0,0,0,145.267,394.732Z" transform="translate(-142.8 -394.309)" fill="#878b8e"/>
      </g>
    </g>
    <g id="Grupo_3479" data-name="Grupo 3479" transform="translate(35.577 0.009)">
      <g id="Grupo_3478" data-name="Grupo 3478">
        <path id="Caminho_3901" data-name="Caminho 3901" d="M247.648.009A1.445,1.445,0,0,0,246.2,1.454V6.371a1.445,1.445,0,1,0,2.89,0V1.454A1.445,1.445,0,0,0,247.648.009Z" transform="translate(-246.203 -0.009)" fill="#878b8e"/>
      </g>
    </g>
    <g id="Grupo_3481" data-name="Grupo 3481" transform="translate(35.576 9.691)">
      <g id="Grupo_3480" data-name="Grupo 3480">
        <path id="Caminho_3902" data-name="Caminho 3902" d="M248.666,67.432a1.444,1.444,0,1,0,.424,1.022A1.453,1.453,0,0,0,248.666,67.432Z" transform="translate(-246.2 -67.009)" fill="#878b8e"/>
      </g>
    </g>
    <g id="Grupo_3483" data-name="Grupo 3483" transform="translate(44.265 5.254)">
      <g id="Grupo_3482" data-name="Grupo 3482">
        <path id="Caminho_3903" data-name="Caminho 3903" d="M311.338,36.73a1.445,1.445,0,0,0-2.044,0l-2.54,2.54a1.445,1.445,0,0,0,2.044,2.044l2.54-2.54A1.445,1.445,0,0,0,311.338,36.73Z" transform="translate(-306.331 -36.307)" fill="#878b8e"/>
      </g>
    </g>
    <g id="Grupo_3485" data-name="Grupo 3485" transform="translate(24.289 5.247)">
      <g id="Grupo_3484" data-name="Grupo 3484">
        <path id="Caminho_3904" data-name="Caminho 3904" d="M173.122,39.246l-2.564-2.564a1.445,1.445,0,0,0-2.044,2.044l2.564,2.564a1.445,1.445,0,1,0,2.044-2.044Z" transform="translate(-168.091 -36.259)" fill="#878b8e"/>
      </g>
    </g>
  </g>
</svg>
