<svg xmlns="http://www.w3.org/2000/svg" width="56" height="83.99" viewBox="0 0 56 83.99">
  <g id="smartphone" transform="translate(0 0)">
    <path id="Caminho_3864" data-name="Caminho 3864" d="M40.6,0H15.4A5.6,5.6,0,0,0,9.8,5.6V24.01A5.633,5.633,0,0,0,8.553,23.8H8.305a4.169,4.169,0,0,0-4.123,3.7,38.51,38.51,0,0,1-1.119,5.72A23.451,23.451,0,0,1,1.918,36.2,15.341,15.341,0,0,0,.291,42.048c-.039,1.2.01,2.483.056,3.717C.39,46.912.436,48.1.409,49.192c-.02.738-.083,1.876-.151,3.159C.1,55.15-.084,58.633.04,60.3a11.147,11.147,0,0,0,2.5,6.918c.445.635.966,1.377,1.571,2.36.245.395.507.795.772,1.2A9.7,9.7,0,0,1,7,75.66V79.79a4.2,4.2,0,0,0,4.2,4.2H28a4.2,4.2,0,0,0,4.2-4.2v-5.6a1.446,1.446,0,0,1,.752-1.236,21.482,21.482,0,0,0,7.013-5.763H40.6a5.591,5.591,0,0,0,5.419-4.218c.062,0,.119.018.181.018h1.442a5.57,5.57,0,0,0,4.236-9.221,5.526,5.526,0,0,0,1.37-8.382A5.582,5.582,0,0,0,50.4,35H46.2V32.419l4.867-2.012a5.605,5.605,0,0,0-4.142-10.417l-.728.29V5.6A5.6,5.6,0,0,0,40.6,0ZM35,2.8V4.2a1.4,1.4,0,0,1-1.4,1.4H22.4A1.4,1.4,0,0,1,21,4.2V2.8ZM31.572,70.52a4.246,4.246,0,0,0-2.17,3.67v5.6a1.4,1.4,0,0,1-1.4,1.4H11.2a1.4,1.4,0,0,1-1.4-1.4V75.66a11.9,11.9,0,0,0-2.572-6.424c-.251-.381-.5-.756-.726-1.13-.641-1.04-1.193-1.82-1.662-2.5a8.539,8.539,0,0,1-2.007-5.519c-.11-1.485.074-4.869.221-7.586.07-1.316.14-2.483.154-3.241.029-1.182-.017-2.412-.062-3.6C3.1,44.418,3.059,43.246,3.1,42.14A12.729,12.729,0,0,1,4.485,37.32a26.087,26.087,0,0,0,1.271-3.343,41.338,41.338,0,0,0,1.2-6.152A1.369,1.369,0,0,1,8.305,26.6h.228a3.388,3.388,0,0,1,1.643.57,1.375,1.375,0,0,0,.388.293c1.022.869,2.04,2.609,2.04,6.137a.479.479,0,0,0,.017.2c.24,4.124-2.741,10.8-3.442,11.145A1.39,1.39,0,0,0,9.8,47.58V61.592a5.6,5.6,0,0,0,5.6,5.6H36.211a24.157,24.157,0,0,1-4.639,3.328ZM40.6,64.393H15.4a2.8,2.8,0,0,1-2.8-2.8V44.982A30.884,30.884,0,0,0,15.395,33.6H15.4c0-4.271-1.32-6.679-2.8-8.038V5.6a2.8,2.8,0,0,1,2.8-2.8h2.8V4.2a4.2,4.2,0,0,0,4.2,4.2H33.6a4.2,4.2,0,0,0,4.2-4.2V2.8h2.8a2.8,2.8,0,0,1,2.8,2.8V35.774a5.539,5.539,0,0,0-.865,9.02,5.55,5.55,0,0,0-.013,8.41,5.54,5.54,0,0,0,.8,8.969A2.784,2.784,0,0,1,40.6,64.392Zm8.4-12.6H46.2a2.56,2.56,0,0,1-.946-.177A2.76,2.76,0,0,1,43.4,48.994a2.8,2.8,0,0,1,2.8-2.8H49a2.8,2.8,0,0,1,0,5.6Zm-1.358,8.4H46.2a2.8,2.8,0,1,1,0-5.6h1.442a2.8,2.8,0,0,1,0,5.6Zm5.558-19.6a2.8,2.8,0,0,1-2.8,2.8H46.2a2.8,2.8,0,0,1,0-5.6h4.2A2.8,2.8,0,0,1,53.2,40.595Zm-5.24-18a2.8,2.8,0,1,1,2.056,5.215L46.2,29.4v-6.1Zm0,0" fill="#878b8e"/>
    <path id="Caminho_3865" data-name="Caminho 3865" d="M140.633,358.4h-11.2a1.4,1.4,0,0,0,0,2.8h11.2a1.4,1.4,0,1,0,0-2.8Zm0,0" transform="translate(-107.032 -299.605)" fill="#878b8e"/>
    <path id="Caminho_3866" data-name="Caminho 3866" d="M78.232,460.8a1.4,1.4,0,1,0,0,2.8h1.4a1.4,1.4,0,1,0,0-2.8Zm0,0" transform="translate(-64.228 -385.21)" fill="#878b8e"/>
    <path id="Caminho_3867" data-name="Caminho 3867" d="M120.9,463.6h4.2a1.4,1.4,0,1,0,0-2.8h-4.2a1.4,1.4,0,1,0,0,2.8Zm0,0" transform="translate(-99.897 -385.21)" fill="#878b8e"/>
  </g>
</svg>
