<svg id="support" xmlns="http://www.w3.org/2000/svg" width="84" height="84" viewBox="0 0 84 84">
  <g id="Grupo_3488" data-name="Grupo 3488" transform="translate(32.2 26.6)">
    <g id="Grupo_3487" data-name="Grupo 3487">
      <path id="Caminho_3905" data-name="Caminho 3905" d="M188.2,152a4.205,4.205,0,0,0-4.2,4.2h2.8a1.4,1.4,0,0,1,2.8,0h2.8A4.205,4.205,0,0,0,188.2,152Z" transform="translate(-184 -152)" fill="#878b8e"/>
    </g>
  </g>
  <g id="Grupo_3490" data-name="Grupo 3490" transform="translate(43.4 26.6)">
    <g id="Grupo_3489" data-name="Grupo 3489">
      <path id="Caminho_3906" data-name="Caminho 3906" d="M252.2,152a4.205,4.205,0,0,0-4.2,4.2h2.8a1.4,1.4,0,0,1,2.8,0h2.8A4.205,4.205,0,0,0,252.2,152Z" transform="translate(-248 -152)" fill="#878b8e"/>
    </g>
  </g>
  <g id="Grupo_3492" data-name="Grupo 3492" transform="translate(36.4 64.4)">
    <g id="Grupo_3491" data-name="Grupo 3491">
      <path id="Caminho_3907" data-name="Caminho 3907" d="M213.6,368a5.6,5.6,0,1,0,5.6,5.6A5.606,5.606,0,0,0,213.6,368Zm0,8.4a2.8,2.8,0,1,1,2.8-2.8A2.8,2.8,0,0,1,213.6,376.4Z" transform="translate(-208 -368)" fill="#878b8e"/>
    </g>
  </g>
  <g id="Grupo_3494" data-name="Grupo 3494">
    <g id="Grupo_3493" data-name="Grupo 3493">
      <path id="Caminho_3908" data-name="Caminho 3908" d="M75.6,81.2V63a21.024,21.024,0,0,0-21-21H53.075a16.857,16.857,0,0,0,1.411-1.4H56a7.008,7.008,0,0,0,7-7V31.133a6.289,6.289,0,0,0-.017-10.476,20.986,20.986,0,0,0-41.966,0A6.3,6.3,0,0,0,24.5,32.2h.953A16.771,16.771,0,0,0,30.926,42H29.4a21.024,21.024,0,0,0-21,21V81.2H0V84H84V81.2ZM60.2,33.6a4.192,4.192,0,0,1-3.639,4.143A16.649,16.649,0,0,0,58.547,32.2H59.5a6.078,6.078,0,0,0,.7-.071ZM63,25.9a3.5,3.5,0,0,1-3.5,3.5h-.7v-7h.7A3.5,3.5,0,0,1,63,25.9ZM25.2,29.4h-.7a3.5,3.5,0,0,1,0-7h.7Zm-.7-9.8a5.906,5.906,0,0,0-.633.064,18.18,18.18,0,0,1,36.266,0A5.906,5.906,0,0,0,59.5,19.6h-.953a16.778,16.778,0,0,0-33.093,0ZM56,22.365c-10.1-.356-16.8-4.487-16.8-8.365a1.4,1.4,0,1,0-2.8,0c0,3.5-3.618,6.4-8.319,6.912A14,14,0,0,1,56,22.365ZM28,29.4V23.722c4.372-.379,8.082-2.488,9.934-5.44,2.929,3.881,9.773,6.612,18.066,6.891V29.4a13.913,13.913,0,0,1-2.827,8.4H42v2.8h8.364A13.991,13.991,0,0,1,28,29.4Zm9.673,16.215a16.293,16.293,0,0,0,8.655,0L42,54.27ZM39.735,56h-2.47l-5.6-11.2h2.47Zm10.13-11.2h2.47L46.735,56h-2.47ZM15.4,63V81.2H11.2V63A18.206,18.206,0,0,1,28.556,44.843L34.135,56H22.4A7.008,7.008,0,0,0,15.4,63ZM65.8,81.2H18.2V63a4.205,4.205,0,0,1,4.2-4.2H61.6A4.205,4.205,0,0,1,65.8,63Zm7,0H68.6V63a7.008,7.008,0,0,0-7-7H49.865l5.579-11.157A18.206,18.206,0,0,1,72.8,63Z" fill="#878b8e"/>
    </g>
  </g>
  <g id="Grupo_3496" data-name="Grupo 3496" transform="translate(60.308 68.923)">
    <g id="Grupo_3495" data-name="Grupo 3495" transform="translate(0 0)">
      <rect id="Retângulo_2490" data-name="Retângulo 2490" width="4" height="10" transform="translate(-0.308 0.077)" fill="#878b8e"/>
    </g>
  </g>
  <g id="Grupo_3498" data-name="Grupo 3498" transform="translate(60.308 63.538)">
    <g id="Grupo_3497" data-name="Grupo 3497" transform="translate(0 0)">
      <rect id="Retângulo_2491" data-name="Retângulo 2491" width="4" height="2" transform="translate(-0.308 0.462)" fill="#878b8e"/>
    </g>
  </g>
  <g id="Grupo_3500" data-name="Grupo 3500" transform="translate(73.231 12.923)">
    <g id="Grupo_3499" data-name="Grupo 3499" transform="translate(0 0)">
      <rect id="Retângulo_2492" data-name="Retângulo 2492" width="2" height="2" transform="translate(-0.231 0.077)" fill="#878b8e"/>
    </g>
  </g>
  <g id="Grupo_3502" data-name="Grupo 3502" transform="translate(73.231 18.308)">
    <g id="Grupo_3501" data-name="Grupo 3501">
      <rect id="Retângulo_2493" data-name="Retângulo 2493" width="2" height="2" transform="translate(-0.231 -0.308)" fill="#878b8e"/>
    </g>
  </g>
  <g id="Grupo_3504" data-name="Grupo 3504" transform="translate(73.231 23.692)">
    <g id="Grupo_3503" data-name="Grupo 3503">
      <rect id="Retângulo_2494" data-name="Retângulo 2494" width="2" height="3" transform="translate(-0.231 0.308)" fill="#878b8e"/>
    </g>
  </g>
  <g id="Grupo_3506" data-name="Grupo 3506" transform="translate(8.615 29.077)">
    <g id="Grupo_3505" data-name="Grupo 3505" transform="translate(0 0)">
      <rect id="Retângulo_2495" data-name="Retângulo 2495" width="2" height="3" transform="translate(0.385 -0.077)" fill="#878b8e"/>
    </g>
  </g>
  <g id="Grupo_3508" data-name="Grupo 3508" transform="translate(8.615 35.538)">
    <g id="Grupo_3507" data-name="Grupo 3507" transform="translate(0 0)">
      <rect id="Retângulo_2496" data-name="Retângulo 2496" width="2" height="2" transform="translate(0.385 0.462)" fill="#878b8e"/>
    </g>
  </g>
  <g id="Grupo_3510" data-name="Grupo 3510" transform="translate(8.615 40.923)">
    <g id="Grupo_3509" data-name="Grupo 3509" transform="translate(0 0)">
      <rect id="Retângulo_2497" data-name="Retângulo 2497" width="2" height="2" transform="translate(0.385 0.077)" fill="#878b8e"/>
    </g>
  </g>
</svg>
