<svg xmlns="http://www.w3.org/2000/svg" width="10.139" height="10.139" viewBox="0 0 10.139 10.139">
  <g id="telephone" transform="translate(0 -0.798)">
    <g id="Grupo_3454" data-name="Grupo 3454" transform="translate(0 0.798)">
      <path id="Caminho_3857" data-name="Caminho 3857" d="M8.533,52.48a.786.786,0,0,0-1.188,0c-.278.275-.555.551-.829.831a.164.164,0,0,1-.229.042c-.18-.1-.371-.177-.544-.285a8.617,8.617,0,0,1-2.077-1.891,4.921,4.921,0,0,1-.745-1.193.171.171,0,0,1,.042-.219c.278-.268.548-.544.822-.819a.789.789,0,0,0,0-1.216c-.217-.219-.434-.434-.651-.654s-.446-.45-.672-.672a.791.791,0,0,0-1.188,0c-.28.275-.548.558-.833.829a1.353,1.353,0,0,0-.425.913,3.867,3.867,0,0,0,.3,1.664A10.112,10.112,0,0,0,2.107,52.8,11.107,11.107,0,0,0,5.786,55.68a5.32,5.32,0,0,0,2.038.593A1.493,1.493,0,0,0,9.1,55.785c.238-.266.506-.509.759-.763a.794.794,0,0,0,0-1.209Q9.2,53.144,8.533,52.48Z" transform="translate(-0.006 -46.137)" fill="#fcd64f"/>
    </g>
  </g>
</svg>
