<svg xmlns="http://www.w3.org/2000/svg" xmlns:xlink="http://www.w3.org/1999/xlink" width="1154.773" height="1169.325" viewBox="0 0 1154.773 1169.325">
  <defs>
    <clipPath id="clip-path">
      <rect id="Retângulo_12" data-name="Retângulo 12" width="777" height="875.438" fill="#231f20"/>
    </clipPath>
  </defs>
  <g id="wave" transform="translate(550.931) rotate(39)">
    <g id="Grupo_983" data-name="Grupo 983" clip-path="url(#clip-path)">
      <path id="Caminho_1403" data-name="Caminho 1403" d="M762.572,462.941a38.7,38.7,0,0,1-17.3,40.568c-8.71,5.489-19.568,14.318-32.693,31.739-19.807,26.369,8.83,78.869-30.784,75.409-38.062-3.341-59.778-15.034-76.125,84.716-6.443,39.136-30.068,56.915-65.028,71.352-35.676,14.8-78.989-8.591-139.364,30.665-37.7,24.46-69.324-13.6-100.824,2.386-47.25,23.983-27.92,66.222-60.494,74.932-24.46,6.563-27.324-33.886-96.29-30.545C25.186,850.009-31.729,688.691,17.907,638.935c47.727-47.966-7.517-95.932,24.46-125.4,38.42-35.437,101.42-8.472,92.591-77.676-2.983-22.909-36.273-76.006-13.722-105.6,30.545-40.21-30.068-104.4,31.381-139.006,84.716-47.727,45.341-74.932,92.83-98.318,36.392-17.9,63.835-16.943,104.881-9.784,42.477,7.4,78.989,50.591,93.307,29.71,20.761-30.187-62.4-35.08-33.051-64.074,17.062-16.824,32.335-3.222,60.375,15.034,20.523,13.364,46.176,16.943,71.472-9.426,38.3-39.972,119.318-73.619,166.091-41.523,36.392,25.057,13.722,65.506,30.426,81.733,37.943,36.989,14.318,63.6,28.278,94.142,18.972,41.4,6.443,73.858-7.756,120.034-20.165,66.221-2.983,125.284,3.1,154.159" transform="translate(-0.01 0.014)" fill="#231f20"/>
    </g>
  </g>
</svg>
